M48
; DRILL file {KiCad (6.0.1)} date Mon Dec  5 15:43:05 2022
; FORMAT={-:-/ absolute / inch / decimal}
; #@! TF.CreationDate,2022-12-05T15:43:05-08:00
; #@! TF.GenerationSoftware,Kicad,Pcbnew,(6.0.1)
; #@! TF.FileFunction,NonPlated,1,2,NPTH
FMAT,2
INCH
; #@! TA.AperFunction,NonPlated,NPTH,ComponentDrill
T1C0.0197
; #@! TA.AperFunction,NonPlated,NPTH,ComponentDrill
T2C0.0200
; #@! TA.AperFunction,NonPlated,NPTH,ComponentDrill
T3C0.0866
; #@! TA.AperFunction,NonPlated,NPTH,ComponentDrill
T4C0.1300
%
G90
G05
T1
X6.722Y-3.205
X6.722Y-3.355
X6.722Y-3.505
X6.722Y-3.774
X6.722Y-3.924
X6.7239Y-4.1943
X6.7239Y-4.3449
X6.724Y-4.617
X6.724Y-4.767
X6.724Y-5.037
X6.724Y-5.187
X6.784Y-4.435
X6.7893Y-4.8567
X6.7903Y-3.5949
X6.7953Y-4.0151
X6.8125Y-3.1746
X6.9345Y-4.435
X6.9399Y-4.856
X6.9404Y-3.595
X6.9464Y-4.015
X6.9631Y-3.175
X6.9975Y-4.1948
X6.998Y-3.3542
X6.998Y-3.5043
X6.998Y-3.7745
X6.998Y-3.9246
X6.998Y-4.3449
X6.998Y-4.616
X6.998Y-4.766
X6.998Y-5.0378
X6.998Y-5.1884
X7.0851Y-4.435
X7.091Y-3.5949
X7.0915Y-4.8557
X7.0969Y-4.0151
X7.1137Y-3.1746
X7.2367Y-4.435
X7.2411Y-3.5958
X7.2416Y-4.8557
X7.247Y-4.0151
X7.2643Y-3.1746
X7.278Y-3.3562
X7.278Y-3.5063
X7.278Y-3.774
X7.278Y-3.9246
X7.278Y-4.196
X7.278Y-4.346
X7.278Y-4.616
X7.278Y-4.766
X7.278Y-5.037
X7.278Y-5.187
X7.3873Y-4.435
X7.3917Y-3.5958
X7.3922Y-4.8557
X7.3971Y-4.0151
X7.4143Y-3.1746
X7.5374Y-4.435
X7.5418Y-3.5958
X7.5428Y-4.8557
X7.5477Y-4.0151
X7.558Y-3.359
X7.558Y-3.509
X7.558Y-3.776
X7.558Y-3.926
X7.558Y-4.617
X7.558Y-4.767
X7.558Y-5.036
X7.558Y-5.186
X7.5586Y-4.1953
X7.559Y-4.3458
X7.5645Y-3.1756
X7.6885Y-4.435
X7.6919Y-3.5958
X7.6934Y-4.8557
X7.6983Y-4.0151
X7.7151Y-3.1756
T2
X6.7214Y-3.6235
X6.7214Y-3.6535
X6.7214Y-3.6835
X6.722Y-3.025
X6.722Y-3.055
X6.722Y-3.085
X6.722Y-3.115
X6.722Y-3.145
X6.722Y-3.175
X6.722Y-3.235
X6.722Y-3.265
X6.722Y-3.295
X6.722Y-3.325
X6.722Y-3.385
X6.722Y-3.415
X6.722Y-3.445
X6.722Y-3.475
X6.722Y-3.535
X6.722Y-3.565
X6.722Y-3.714
X6.722Y-3.744
X6.722Y-3.804
X6.722Y-3.834
X6.722Y-3.864
X6.722Y-3.894
X6.722Y-3.954
X6.722Y-3.984
X6.7234Y-4.0427
X6.7234Y-4.0732
X6.7234Y-4.1037
X6.7234Y-4.4665
X6.7234Y-4.4965
X6.7234Y-4.5265
X6.7234Y-4.8865
X6.7234Y-4.9165
X6.7234Y-4.9465
X6.7239Y-4.1342
X6.7239Y-4.1643
X6.7239Y-4.2243
X6.7239Y-4.2543
X6.7239Y-4.2848
X6.7239Y-4.3149
X6.7239Y-4.3749
X6.7239Y-4.4049
X6.724Y-4.435
X6.724Y-4.557
X6.724Y-4.587
X6.724Y-4.647
X6.724Y-4.677
X6.724Y-4.707
X6.724Y-4.737
X6.724Y-4.797
X6.724Y-4.827
X6.724Y-4.977
X6.724Y-5.007
X6.724Y-5.067
X6.724Y-5.097
X6.724Y-5.127
X6.724Y-5.157
X6.724Y-5.217
X6.724Y-5.247
X6.7293Y-4.8567
X6.7303Y-3.5949
X6.7352Y-4.0151
X6.7525Y-3.1746
X6.754Y-4.435
X6.7593Y-4.8567
X6.7603Y-3.5949
X6.7653Y-4.0151
X6.7825Y-3.1746
X6.814Y-4.435
X6.8193Y-4.8567
X6.8203Y-3.5949
X6.8253Y-4.0151
X6.8425Y-3.1746
X6.844Y-4.435
X6.8494Y-4.8567
X6.8504Y-3.5949
X6.8553Y-4.0151
X6.8725Y-3.1746
X6.8745Y-4.435
X6.8799Y-4.856
X6.8804Y-3.595
X6.8863Y-4.015
X6.903Y-3.175
X6.9045Y-4.435
X6.9099Y-4.856
X6.9104Y-3.595
X6.9164Y-4.015
X6.9331Y-3.175
X6.9645Y-4.435
X6.9699Y-4.856
X6.9704Y-3.595
X6.9764Y-4.015
X6.9926Y-3.6244
X6.9931Y-3.175
X6.9946Y-4.435
X6.9974Y-3.2336
X6.9974Y-3.2641
X6.9974Y-3.6539
X6.9974Y-3.6844
X6.9974Y-4.0437
X6.9974Y-4.0742
X6.9974Y-4.4655
X6.9974Y-4.4955
X6.9974Y-4.5255
X6.9974Y-4.8862
X6.9974Y-4.9167
X6.9974Y-4.9472
X6.9975Y-4.1047
X6.9975Y-4.1347
X6.9975Y-4.1648
X6.9975Y-4.2248
X6.9975Y-4.2548
X6.998Y-3.022
X6.998Y-3.0525
X6.998Y-3.083
X6.998Y-3.1136
X6.998Y-3.1441
X6.998Y-3.2942
X6.998Y-3.3242
X6.998Y-3.3842
X6.998Y-3.4143
X6.998Y-3.4443
X6.998Y-3.4743
X6.998Y-3.5343
X6.998Y-3.5643
X6.998Y-3.7145
X6.998Y-3.7445
X6.998Y-3.8045
X6.998Y-3.8345
X6.998Y-3.8645
X6.998Y-3.8946
X6.998Y-3.9546
X6.998Y-3.9846
X6.998Y-4.2848
X6.998Y-4.3149
X6.998Y-4.3749
X6.998Y-4.4049
X6.998Y-4.556
X6.998Y-4.586
X6.998Y-4.646
X6.998Y-4.676
X6.998Y-4.706
X6.998Y-4.736
X6.998Y-4.796
X6.998Y-4.826
X6.998Y-4.9777
X6.998Y-5.0078
X6.998Y-5.0678
X6.998Y-5.0978
X6.998Y-5.1283
X6.998Y-5.1584
X6.998Y-5.2184
X6.998Y-5.2484
X7.0Y-4.856
X7.0005Y-3.595
X7.0034Y-3.2031
X7.0064Y-4.015
X7.0231Y-3.175
X7.0251Y-4.435
X7.031Y-3.5949
X7.0315Y-4.8557
X7.0369Y-4.0151
X7.0536Y-3.1746
X7.0551Y-4.435
X7.061Y-3.5949
X7.0615Y-4.8557
X7.0669Y-4.0151
X7.0837Y-3.1746
X7.1151Y-4.435
X7.121Y-3.5949
X7.1215Y-4.8557
X7.1269Y-4.0151
X7.1437Y-3.1746
X7.1452Y-4.435
X7.1511Y-3.5949
X7.1516Y-4.8557
X7.157Y-4.0151
X7.1737Y-3.1746
X7.1767Y-4.435
X7.1811Y-3.5958
X7.1816Y-4.8557
X7.187Y-4.0151
X7.2042Y-3.1746
X7.2067Y-4.435
X7.2111Y-3.5958
X7.2116Y-4.8557
X7.217Y-4.0151
X7.2343Y-3.1746
X7.2667Y-4.435
X7.2711Y-3.5958
X7.2716Y-4.8557
X7.277Y-3.026
X7.277Y-3.056
X7.277Y-3.086
X7.277Y-3.116
X7.277Y-3.146
X7.277Y-4.0151
X7.2774Y-3.6529
X7.2774Y-3.6834
X7.2774Y-4.0455
X7.2774Y-4.0755
X7.2774Y-4.1055
X7.2774Y-4.4655
X7.2774Y-4.4955
X7.2774Y-4.5255
X7.2774Y-4.8865
X7.2774Y-4.9165
X7.2774Y-4.9465
X7.278Y-3.2041
X7.278Y-3.2356
X7.278Y-3.2661
X7.278Y-3.2962
X7.278Y-3.3262
X7.278Y-3.3862
X7.278Y-3.4162
X7.278Y-3.4462
X7.278Y-3.4763
X7.278Y-3.5363
X7.278Y-3.5663
X7.278Y-3.714
X7.278Y-3.744
X7.278Y-3.804
X7.278Y-3.834
X7.278Y-3.8645
X7.278Y-3.8946
X7.278Y-3.9546
X7.278Y-3.9846
X7.278Y-4.136
X7.278Y-4.166
X7.278Y-4.226
X7.278Y-4.256
X7.278Y-4.286
X7.278Y-4.316
X7.278Y-4.376
X7.278Y-4.406
X7.278Y-4.556
X7.278Y-4.586
X7.278Y-4.646
X7.278Y-4.676
X7.278Y-4.706
X7.278Y-4.736
X7.278Y-4.796
X7.278Y-4.826
X7.278Y-4.977
X7.278Y-5.007
X7.278Y-5.067
X7.278Y-5.097
X7.278Y-5.127
X7.278Y-5.157
X7.278Y-5.217
X7.278Y-5.247
X7.283Y-3.6234
X7.2943Y-3.1746
X7.2967Y-4.435
X7.3012Y-3.5958
X7.3017Y-4.8557
X7.3071Y-4.0151
X7.3243Y-3.1746
X7.3273Y-4.435
X7.3317Y-3.5958
X7.3322Y-4.8557
X7.3371Y-4.0151
X7.3543Y-3.1746
X7.3573Y-4.435
X7.3617Y-3.5958
X7.3622Y-4.8557
X7.3671Y-4.0151
X7.3843Y-3.1746
X7.4173Y-4.435
X7.4217Y-3.5958
X7.4222Y-4.8557
X7.4271Y-4.0151
X7.4443Y-3.1746
X7.4473Y-4.435
X7.4517Y-3.5958
X7.4523Y-4.8557
X7.4572Y-4.0151
X7.4744Y-3.1746
X7.4773Y-4.435
X7.4818Y-3.5958
X7.4828Y-4.8557
X7.4877Y-4.0151
X7.5044Y-3.1756
X7.5074Y-4.435
X7.5118Y-3.5958
X7.5128Y-4.8557
X7.5177Y-4.0151
X7.5345Y-3.1756
X7.5574Y-3.6255
X7.5574Y-3.6555
X7.5574Y-3.6855
X7.5574Y-4.4665
X7.5574Y-4.4965
X7.5574Y-4.5265
X7.5574Y-4.8855
X7.5574Y-4.9155
X7.5574Y-4.9455
X7.558Y-3.207
X7.558Y-3.237
X7.558Y-3.267
X7.558Y-3.299
X7.558Y-3.329
X7.558Y-3.389
X7.558Y-3.419
X7.558Y-3.449
X7.558Y-3.479
X7.558Y-3.539
X7.558Y-3.569
X7.558Y-3.716
X7.558Y-3.746
X7.558Y-3.806
X7.558Y-3.836
X7.558Y-3.866
X7.558Y-3.896
X7.558Y-3.956
X7.558Y-3.986
X7.558Y-4.557
X7.558Y-4.587
X7.558Y-4.647
X7.558Y-4.677
X7.558Y-4.707
X7.558Y-4.737
X7.558Y-4.797
X7.558Y-4.827
X7.558Y-4.976
X7.558Y-5.006
X7.558Y-5.066
X7.558Y-5.096
X7.558Y-5.126
X7.558Y-5.156
X7.558Y-5.216
X7.558Y-5.246
X7.5584Y-4.0742
X7.5584Y-4.1047
X7.5586Y-4.1352
X7.5586Y-4.1653
X7.5586Y-4.2253
X7.5586Y-4.2553
X7.559Y-4.2858
X7.559Y-4.3158
X7.559Y-4.3758
X7.559Y-4.4059
X7.56Y-3.023
X7.56Y-3.0535
X7.56Y-3.084
X7.56Y-3.1145
X7.56Y-3.1451
X7.5615Y-4.0427
X7.5674Y-4.435
X7.5718Y-3.5958
X7.5728Y-4.8557
X7.5777Y-4.0151
X7.5945Y-3.1756
X7.5974Y-4.435
X7.6019Y-3.5958
X7.6029Y-4.8557
X7.6078Y-4.0151
X7.6245Y-3.1756
X7.6284Y-4.435
X7.6319Y-3.5958
X7.6334Y-4.8557
X7.6383Y-4.0151
X7.655Y-3.1756
X7.6585Y-4.435
X7.6619Y-3.5958
X7.6634Y-4.8557
X7.6683Y-4.0151
X7.6851Y-3.1756
X7.7185Y-4.435
X7.7219Y-3.5958
X7.7234Y-4.8557
X7.7283Y-4.0151
X7.7451Y-3.1756
X7.7485Y-4.435
X7.7519Y-3.5958
X7.7534Y-4.8557
X7.7584Y-4.0151
X7.7751Y-3.1756
X7.779Y-4.435
X7.783Y-3.5958
X7.784Y-4.8547
X7.7889Y-4.0151
X7.8095Y-3.1766
X7.8095Y-4.435
X7.8145Y-3.5958
X7.8145Y-4.8547
X7.8184Y-4.0151
T3
X4.4193Y-3.4951
X4.4203Y-4.4311
T4
X4.0425Y-4.1785
X5.4575Y-5.1735
X5.6475Y-3.6135
T0
M30
