M48
; DRILL file {KiCad (6.0.1)} date Mon Dec  5 15:43:05 2022
; FORMAT={-:-/ absolute / inch / decimal}
; #@! TF.CreationDate,2022-12-05T15:43:05-08:00
; #@! TF.GenerationSoftware,Kicad,Pcbnew,(6.0.1)
; #@! TF.FileFunction,Plated,1,2,PTH
FMAT,2
INCH
; #@! TA.AperFunction,Plated,PTH,ViaDrill
T1C0.0100
; #@! TA.AperFunction,Plated,PTH,ViaDrill
T2C0.0130
; #@! TA.AperFunction,Plated,PTH,ViaDrill
T3C0.0157
; #@! TA.AperFunction,Plated,PTH,ComponentDrill
T4C0.0315
; #@! TA.AperFunction,Plated,PTH,ComponentDrill
T5C0.0354
; #@! TA.AperFunction,Plated,PTH,ComponentDrill
T6C0.0394
; #@! TA.AperFunction,Plated,PTH,ComponentDrill
T7C0.0400
; #@! TA.AperFunction,Plated,PTH,ComponentDrill
T8C0.1102
; #@! TA.AperFunction,Plated,PTH,ComponentDrill
T9C0.1250
%
G90
G05
T1
X4.9075Y-5.0185
X4.9075Y-5.0735
T2
X3.9125Y-4.6485
X3.9225Y-5.1685
X4.2323Y-3.7835
X4.3945Y-5.0695
X4.534Y-3.285
X4.5375Y-4.2235
X4.5625Y-4.7085
X4.5635Y-3.9827
X4.623Y-3.874
X4.6568Y-3.9053
X4.6688Y-4.1706
X4.6725Y-4.0485
X4.6985Y-4.0872
X4.7125Y-4.3235
X4.7175Y-4.4085
X4.7385Y-4.0579
X4.7925Y-4.1035
X4.8225Y-4.1935
X4.8225Y-4.2635
X4.8275Y-3.6835
X4.8387Y-3.8439
X4.8678Y-3.8266
X4.8922Y-3.5112
X4.917Y-3.889
X4.9225Y-4.2235
X4.9295Y-3.8229
X4.9625Y-4.5685
X4.9675Y-4.7985
X4.9725Y-4.3585
X4.9775Y-4.9785
X4.9825Y-4.4635
X4.999Y-4.242
X5.0025Y-4.9035
X5.0175Y-4.4635
X5.018Y-4.303
X5.0185Y-4.3394
X5.022Y-4.2156
X5.0325Y-4.5635
X5.0525Y-4.4635
X5.0575Y-4.8185
X5.064Y-4.027
X5.09Y-3.517
X5.095Y-4.425
X5.106Y-3.868
X5.106Y-4.389
X5.1075Y-4.9785
X5.14Y-3.833
X5.1425Y-4.4585
X5.1475Y-4.7885
X5.149Y-4.4125
X5.1625Y-4.1135
X5.1767Y-4.3227
X5.1828Y-4.3582
X5.1896Y-4.2663
X5.2025Y-4.8185
X5.2225Y-4.5785
X5.2275Y-4.0485
X5.2325Y-4.3935
X5.2375Y-4.1585
X5.2575Y-3.2735
X5.2575Y-4.4185
X5.2575Y-4.7135
X5.2942Y-4.0628
X5.2975Y-3.8285
X5.3225Y-4.2835
X5.3275Y-4.3485
X5.3475Y-4.1985
X5.3525Y-3.8785
X5.3675Y-4.3485
X5.3875Y-4.6335
X5.407Y-3.652
X5.4075Y-4.1735
X5.4158Y-3.7228
X5.4325Y-4.5985
X5.4425Y-4.0935
X5.4525Y-4.8235
X5.4575Y-3.7235
X5.4575Y-4.6585
X5.4925Y-4.0935
X5.5025Y-4.4435
X5.5075Y-4.6185
X5.5075Y-4.6835
X5.5125Y-3.8835
X5.5325Y-3.7235
X5.5375Y-4.1985
X5.5375Y-4.3335
X5.5375Y-4.4435
X5.5475Y-4.8085
X5.5525Y-4.1385
X5.5625Y-3.8835
X5.5925Y-4.1435
X5.6025Y-5.0585
X5.6125Y-4.9185
X5.6175Y-4.1735
X5.6475Y-5.0685
X5.6525Y-4.1835
X5.6525Y-4.9135
X5.6575Y-4.4985
X5.6775Y-4.1035
X5.6875Y-4.8385
X5.6925Y-4.1885
X5.7075Y-3.8585
X5.7375Y-4.3135
X5.7475Y-4.8135
X5.7525Y-4.8885
X5.7675Y-4.0935
X5.7775Y-4.2185
X5.7825Y-3.7135
X5.7825Y-4.7335
X5.7975Y-3.9935
X5.8025Y-4.3735
X5.8075Y-3.9435
X5.8125Y-4.7835
X5.8125Y-4.8185
X5.8175Y-4.2235
X5.8275Y-3.7435
X5.8275Y-4.1035
X5.8275Y-4.1385
X5.8375Y-3.7785
X5.8375Y-4.7485
X5.8475Y-4.8335
X5.8525Y-5.0685
X5.8675Y-4.7235
X5.8725Y-3.5835
X5.8775Y-4.1385
X5.8775Y-4.1885
X5.8875Y-4.4585
X5.8975Y-4.5435
X5.9175Y-3.9035
X5.9275Y-3.5235
X5.9275Y-3.9985
X5.9275Y-5.0435
X5.9281Y-3.8335
X5.929Y-3.7135
X5.9425Y-4.1735
X5.9475Y-4.1035
X5.9975Y-4.0935
X6.0025Y-5.0135
X6.0075Y-3.6285
X6.0075Y-3.8735
X6.0075Y-4.9285
X6.0075Y-4.9735
X6.0825Y-4.3735
X6.0825Y-4.5135
X6.0825Y-4.5535
X6.0825Y-4.9735
X6.0875Y-4.0935
X6.0875Y-4.1335
X6.0875Y-4.1735
X6.0875Y-4.7835
X6.0875Y-4.8235
X6.0875Y-4.9285
X6.0925Y-3.8585
X6.0925Y-3.9035
X6.0925Y-5.0135
X6.0975Y-3.7185
X6.0975Y-3.7635
X6.1575Y-3.7185
X6.1575Y-3.7635
X6.1575Y-4.0935
X6.1575Y-4.1335
X6.1575Y-4.1735
X6.1575Y-4.3735
X6.1575Y-4.5135
X6.1575Y-4.5535
X6.1575Y-4.8235
X6.1575Y-4.9735
X6.1625Y-3.9035
X6.1975Y-3.8585
X6.2625Y-3.5235
X6.3225Y-4.7785
X6.3294Y-4.2135
X6.3625Y-4.6585
X6.4475Y-5.0135
X6.4575Y-3.5235
T3
X4.469Y-3.034
X4.599Y-3.685
X4.621Y-3.613
X4.685Y-3.546
X4.7544Y-3.8521
X4.767Y-3.24
X4.801Y-3.65
X4.86Y-3.763
X4.893Y-3.649
X4.897Y-3.694
X4.957Y-3.649
X5.046Y-4.268
X5.082Y-3.719
X5.082Y-3.7877
X5.089Y-4.091
X5.2998Y-4.0118
T4
X5.8894Y-3.1235
X5.8894Y-3.3985
X5.8894Y-3.6735
X5.8894Y-3.9485
X5.8894Y-4.3235
X5.8894Y-4.5985
X5.8894Y-4.8735
X5.8894Y-5.1485
X5.9681Y-3.1235
X5.9681Y-3.3985
X5.9681Y-3.6735
X5.9681Y-3.9485
X5.9681Y-4.3235
X5.9681Y-4.5985
X5.9681Y-4.8735
X5.9681Y-5.1485
X6.0469Y-3.1235
X6.0469Y-3.3985
X6.0469Y-3.6735
X6.0469Y-3.9485
X6.0469Y-4.3235
X6.0469Y-4.5985
X6.0469Y-4.8735
X6.0469Y-5.1485
X6.1256Y-3.1235
X6.1256Y-3.3985
X6.1256Y-3.6735
X6.1256Y-3.9485
X6.1256Y-4.3235
X6.1256Y-4.5985
X6.1256Y-4.8735
X6.1256Y-5.1485
X6.3694Y-3.1235
X6.3694Y-3.3985
X6.3694Y-3.6735
X6.3694Y-3.9485
X6.3694Y-4.3235
X6.3694Y-4.5985
X6.3694Y-4.8735
X6.3694Y-5.1485
X6.4481Y-3.1235
X6.4481Y-3.3985
X6.4481Y-3.6735
X6.4481Y-3.9485
X6.4481Y-4.3235
X6.4481Y-4.5985
X6.4481Y-4.8735
X6.4481Y-5.1485
X6.5269Y-3.1235
X6.5269Y-3.3985
X6.5269Y-3.6735
X6.5269Y-3.9485
X6.5269Y-4.3235
X6.5269Y-4.5985
X6.5269Y-4.8735
X6.5269Y-5.1485
X6.6056Y-3.1235
X6.6056Y-3.3985
X6.6056Y-3.6735
X6.6056Y-3.9485
X6.6056Y-4.3235
X6.6056Y-4.5985
X6.6056Y-4.8735
X6.6056Y-5.1485
X6.822Y-4.312
X6.822Y-4.371
X6.823Y-3.473
X6.823Y-3.532
X6.823Y-3.893
X6.823Y-3.952
X6.823Y-4.733
X6.823Y-4.792
X6.823Y-5.154
X6.823Y-5.213
X6.881Y-4.312
X6.881Y-4.371
X6.882Y-3.473
X6.882Y-3.532
X6.882Y-3.893
X6.882Y-3.952
X6.882Y-4.733
X6.882Y-4.792
X6.882Y-5.154
X6.882Y-5.213
X7.103Y-3.473
X7.103Y-3.532
X7.103Y-3.893
X7.103Y-3.952
X7.103Y-4.313
X7.103Y-4.372
X7.103Y-4.733
X7.103Y-4.792
X7.103Y-5.154
X7.103Y-5.213
X7.162Y-3.473
X7.162Y-3.532
X7.162Y-3.893
X7.162Y-3.952
X7.162Y-4.313
X7.162Y-4.372
X7.162Y-4.733
X7.162Y-4.792
X7.162Y-5.154
X7.162Y-5.213
X7.384Y-3.473
X7.384Y-3.532
X7.384Y-3.893
X7.384Y-3.952
X7.384Y-4.313
X7.384Y-4.372
X7.384Y-4.733
X7.384Y-4.792
X7.384Y-5.153
X7.384Y-5.212
X7.443Y-3.473
X7.443Y-3.532
X7.443Y-3.893
X7.443Y-3.952
X7.443Y-4.313
X7.443Y-4.372
X7.443Y-4.733
X7.443Y-4.792
X7.443Y-5.153
X7.443Y-5.212
X7.663Y-3.473
X7.663Y-3.532
X7.663Y-3.893
X7.663Y-3.952
X7.663Y-4.313
X7.663Y-4.372
X7.663Y-4.733
X7.663Y-4.792
X7.663Y-5.153
X7.663Y-5.212
X7.722Y-3.473
X7.722Y-3.532
X7.722Y-3.893
X7.722Y-3.952
X7.722Y-4.313
X7.722Y-4.372
X7.722Y-4.733
X7.722Y-4.792
X7.722Y-5.153
X7.722Y-5.212
T5
X3.9125Y-4.2885
X3.9125Y-4.3885
X3.9125Y-4.4885
X3.9125Y-4.5885
X4.6075Y-5.2235
X4.7075Y-5.2235
X4.7366Y-3.4447
X4.8366Y-3.4547
X4.9325Y-5.2235
X4.9366Y-3.4447
X5.0366Y-3.4547
X5.1325Y-5.2235
X5.1457Y-3.4862
X5.2225Y-4.1035
X5.7175Y-5.1935
T6
X4.8888Y-3.0612
X4.8888Y-3.1612
T7
X4.1625Y-3.5185
X4.1625Y-3.6185
X4.1625Y-3.7185
X4.1625Y-3.8185
X4.1625Y-3.9185
X4.1625Y-4.0185
X4.9385Y-4.6265
X4.9385Y-4.7265
X5.0385Y-4.6265
X5.0385Y-4.7265
X5.1385Y-4.6265
X5.1385Y-4.7265
T8
X4.0875Y-3.3635
T9
X3.9675Y-3.1735
X4.2075Y-3.1735
T0
M30
