%TF.GenerationSoftware,KiCad,Pcbnew,(6.0.1)*%
%TF.CreationDate,2022-12-05T15:43:15-08:00*%
%TF.ProjectId,MusselGapeTracker_RevF,4d757373-656c-4476-9170-65547261636b,rev?*%
%TF.SameCoordinates,Original*%
%TF.FileFunction,Paste,Top*%
%TF.FilePolarity,Positive*%
%FSLAX46Y46*%
G04 Gerber Fmt 4.6, Leading zero omitted, Abs format (unit mm)*
G04 Created by KiCad (PCBNEW (6.0.1)) date 2022-12-05 15:43:15*
%MOMM*%
%LPD*%
G01*
G04 APERTURE LIST*
G04 Aperture macros list*
%AMRoundRect*
0 Rectangle with rounded corners*
0 $1 Rounding radius*
0 $2 $3 $4 $5 $6 $7 $8 $9 X,Y pos of 4 corners*
0 Add a 4 corners polygon primitive as box body*
4,1,4,$2,$3,$4,$5,$6,$7,$8,$9,$2,$3,0*
0 Add four circle primitives for the rounded corners*
1,1,$1+$1,$2,$3*
1,1,$1+$1,$4,$5*
1,1,$1+$1,$6,$7*
1,1,$1+$1,$8,$9*
0 Add four rect primitives between the rounded corners*
20,1,$1+$1,$2,$3,$4,$5,0*
20,1,$1+$1,$4,$5,$6,$7,0*
20,1,$1+$1,$6,$7,$8,$9,0*
20,1,$1+$1,$8,$9,$2,$3,0*%
G04 Aperture macros list end*
%ADD10R,1.000000X1.100000*%
%ADD11R,1.100000X1.000000*%
%ADD12R,0.800000X0.900000*%
%ADD13R,1.250000X0.300000*%
%ADD14R,3.700000X0.150000*%
%ADD15R,1.270000X0.558800*%
%ADD16R,1.550000X1.300000*%
%ADD17R,0.660400X2.032000*%
%ADD18R,1.400000X2.667000*%
%ADD19R,0.700000X1.450000*%
%ADD20R,1.000000X1.600000*%
%ADD21R,1.000000X1.400000*%
%ADD22R,1.200000X1.200000*%
%ADD23R,4.064000X4.064000*%
%ADD24R,3.429000X3.429000*%
%ADD25R,1.400000X1.290000*%
%ADD26R,1.300000X1.290000*%
%ADD27R,1.680000X0.800000*%
%ADD28R,1.500000X1.600000*%
%ADD29R,1.500000X1.700000*%
%ADD30R,1.700000X1.500000*%
%ADD31RoundRect,0.150000X-0.825000X-0.150000X0.825000X-0.150000X0.825000X0.150000X-0.825000X0.150000X0*%
%ADD32R,0.348000X1.397000*%
%ADD33RoundRect,0.041300X0.253700X-0.983700X0.253700X0.983700X-0.253700X0.983700X-0.253700X-0.983700X0*%
%ADD34R,0.558800X1.270000*%
G04 APERTURE END LIST*
D10*
%TO.C,C55*%
X183070500Y-97179700D03*
X183070500Y-95479700D03*
%TD*%
D11*
%TO.C,R60*%
X187032900Y-107695300D03*
X187032900Y-105995300D03*
%TD*%
D12*
%TO.C,P-FET*%
X109850000Y-87750000D03*
X107950000Y-87750000D03*
X108900000Y-89850000D03*
%TD*%
D13*
%TO.C,A139_HALL1*%
X175528500Y-125684100D03*
X175528500Y-125184100D03*
D14*
X174053500Y-124684100D03*
D13*
X172578500Y-125184100D03*
X172578500Y-125684100D03*
%TD*%
D11*
%TO.C,R67*%
X179895500Y-86384700D03*
X179895500Y-84684700D03*
%TD*%
D15*
%TO.C,MCP1700T-3302*%
X116016400Y-79314800D03*
X116016400Y-77435200D03*
X113933600Y-78375000D03*
%TD*%
D13*
%TO.C,A139_HALL9*%
X196864500Y-93654700D03*
X196864500Y-93154700D03*
D14*
X195389500Y-92654700D03*
D13*
X193914500Y-93154700D03*
X193914500Y-93654700D03*
%TD*%
D11*
%TO.C,R9*%
X121975000Y-96325000D03*
X121975000Y-94625000D03*
%TD*%
D10*
%TO.C,R3*%
X133960500Y-117310100D03*
X135660500Y-117310100D03*
%TD*%
D11*
%TO.C,R64*%
X187032900Y-129082100D03*
X187032900Y-127382100D03*
%TD*%
D16*
%TO.C,BUTTON2*%
X109359600Y-117515200D03*
X101409600Y-117515200D03*
X109359600Y-113015200D03*
X101409600Y-113015200D03*
%TD*%
D13*
%TO.C,A139_HALL11*%
X196864500Y-104322700D03*
X196864500Y-103822700D03*
D14*
X195389500Y-103322700D03*
D13*
X193914500Y-103822700D03*
X193914500Y-104322700D03*
%TD*%
D11*
%TO.C,R65*%
X194119500Y-129082100D03*
X194119500Y-127382100D03*
%TD*%
D13*
%TO.C,A139_HALL10*%
X189777900Y-104322700D03*
X189777900Y-103822700D03*
D14*
X188302900Y-103322700D03*
D13*
X186827900Y-103822700D03*
X186827900Y-104322700D03*
%TD*%
D11*
%TO.C,R61*%
X194119500Y-107695300D03*
X194119500Y-105995300D03*
%TD*%
D10*
%TO.C,C56*%
X175806100Y-107822300D03*
X175806100Y-106122300D03*
%TD*%
D13*
%TO.C,A139_HALL5*%
X182640500Y-93654700D03*
X182640500Y-93154700D03*
D14*
X181165500Y-92654700D03*
D13*
X179690500Y-93154700D03*
X179690500Y-93654700D03*
%TD*%
%TO.C,A139_HALL4*%
X182640500Y-125684100D03*
X182640500Y-125184100D03*
D14*
X181165500Y-124684100D03*
D13*
X179690500Y-125184100D03*
X179690500Y-125684100D03*
%TD*%
D17*
%TO.C,SHIFT_1*%
X137096500Y-126733500D03*
X138366500Y-126733500D03*
X139636500Y-126733500D03*
X140906500Y-126733500D03*
X142176500Y-126733500D03*
X143446500Y-126733500D03*
X144716500Y-126733500D03*
X145986500Y-126733500D03*
X145986500Y-120586700D03*
X144716500Y-120586700D03*
X143446500Y-120586700D03*
X142176500Y-120586700D03*
X140906500Y-120586700D03*
X139636500Y-120586700D03*
X138366500Y-120586700D03*
X137096500Y-120586700D03*
%TD*%
D18*
%TO.C,C1*%
X112100000Y-79418600D03*
X112100000Y-83431400D03*
%TD*%
D10*
%TO.C,C8*%
X134937500Y-121335100D03*
X134937500Y-119635100D03*
%TD*%
D19*
%TO.C,INDUCTOR*%
X132614300Y-110096500D03*
X134314300Y-110096500D03*
%TD*%
D10*
%TO.C,R14*%
X131660000Y-102463600D03*
X129960000Y-102463600D03*
%TD*%
D20*
%TO.C,RESET*%
X128211500Y-130924100D03*
X128211500Y-124524100D03*
X132011500Y-130924100D03*
X132011500Y-124524100D03*
%TD*%
D21*
%TO.C,BJT*%
X117850000Y-87800000D03*
X115950000Y-87800000D03*
X116900000Y-90000000D03*
%TD*%
D22*
%TO.C,LED2*%
X112238500Y-99403100D03*
X110138500Y-99403100D03*
%TD*%
D16*
%TO.C,BUTTON1*%
X114769800Y-109260200D03*
X106819800Y-109260200D03*
X114769800Y-104760200D03*
X106819800Y-104760200D03*
%TD*%
D11*
%TO.C,R53*%
X179895500Y-118388700D03*
X179895500Y-116688700D03*
%TD*%
D10*
%TO.C,C66*%
X175831500Y-86511700D03*
X175831500Y-84811700D03*
%TD*%
%TO.C,C53*%
X182816500Y-118515700D03*
X182816500Y-116815700D03*
%TD*%
D11*
%TO.C,R15*%
X135686800Y-104825100D03*
X135686800Y-103125100D03*
%TD*%
%TO.C,R4*%
X122161300Y-132104700D03*
X122161300Y-130404700D03*
%TD*%
D10*
%TO.C,R32*%
X112560600Y-85904000D03*
X114260600Y-85904000D03*
%TD*%
D11*
%TO.C,R59*%
X194119500Y-97052700D03*
X194119500Y-95352700D03*
%TD*%
D10*
%TO.C,R33*%
X110704600Y-85904000D03*
X109004600Y-85904000D03*
%TD*%
D11*
%TO.C,R58*%
X187032900Y-97052700D03*
X187032900Y-95352700D03*
%TD*%
D10*
%TO.C,C65*%
X197294500Y-129209100D03*
X197294500Y-127509100D03*
%TD*%
%TO.C,C62*%
X190080900Y-118515700D03*
X190080900Y-116815700D03*
%TD*%
D22*
%TO.C,LED1*%
X112238500Y-97498100D03*
X110138500Y-97498100D03*
%TD*%
D11*
%TO.C,R50*%
X172783500Y-97052700D03*
X172783500Y-95352700D03*
%TD*%
D18*
%TO.C,C2*%
X118325000Y-79443600D03*
X118325000Y-83456400D03*
%TD*%
D13*
%TO.C,A139_HALL6*%
X175503100Y-104297300D03*
X175503100Y-103797300D03*
D14*
X174028100Y-103297300D03*
D13*
X172553100Y-103797300D03*
X172553100Y-104297300D03*
%TD*%
%TO.C,A139_HALL2*%
X175528500Y-114990700D03*
X175528500Y-114490700D03*
D14*
X174053500Y-113990700D03*
D13*
X172578500Y-114490700D03*
X172578500Y-114990700D03*
%TD*%
D11*
%TO.C,C23*%
X132639700Y-107226300D03*
X134339700Y-107226300D03*
%TD*%
%TO.C,C3*%
X118007500Y-107531100D03*
X116307500Y-107531100D03*
%TD*%
D13*
%TO.C,A139_HALL8*%
X189777900Y-93654700D03*
X189777900Y-93154700D03*
D14*
X188302900Y-92654700D03*
D13*
X186827900Y-93154700D03*
X186827900Y-93654700D03*
%TD*%
D11*
%TO.C,R28*%
X135445500Y-114096100D03*
X135445500Y-112396100D03*
%TD*%
D23*
%TO.C,CR1220_BATTERY0*%
X137477500Y-83147100D03*
D24*
X129857500Y-83147100D03*
X145097500Y-83147100D03*
%TD*%
D13*
%TO.C,A139_HALL0*%
X175528500Y-93654700D03*
X175528500Y-93154700D03*
D14*
X174053500Y-92654700D03*
D13*
X172578500Y-93154700D03*
X172578500Y-93654700D03*
%TD*%
D11*
%TO.C,R6*%
X115700000Y-96425000D03*
X115700000Y-94725000D03*
%TD*%
D13*
%TO.C,A139_HALL15*%
X196864500Y-125658700D03*
X196864500Y-125158700D03*
D14*
X195389500Y-124658700D03*
D13*
X193914500Y-125158700D03*
X193914500Y-125658700D03*
%TD*%
D11*
%TO.C,R1*%
X117195600Y-100496000D03*
X117195600Y-102196000D03*
%TD*%
%TO.C,R29*%
X120599200Y-90717000D03*
X120599200Y-92417000D03*
%TD*%
D10*
%TO.C,C59*%
X197167500Y-97179700D03*
X197167500Y-95479700D03*
%TD*%
%TO.C,C58*%
X189953900Y-97179700D03*
X189953900Y-95479700D03*
%TD*%
D11*
%TO.C,R69*%
X194119500Y-86384700D03*
X194119500Y-84684700D03*
%TD*%
D10*
%TO.C,C6*%
X137350500Y-113207100D03*
X137350500Y-111507100D03*
%TD*%
D11*
%TO.C,R5*%
X124625100Y-124461100D03*
X124625100Y-126161100D03*
%TD*%
D10*
%TO.C,C54*%
X182943500Y-129209100D03*
X182943500Y-127509100D03*
%TD*%
D13*
%TO.C,A139_HALL14*%
X189777900Y-125658700D03*
X189777900Y-125158700D03*
D14*
X188302900Y-124658700D03*
D13*
X186827900Y-125158700D03*
X186827900Y-125658700D03*
%TD*%
%TO.C,A139_HALL12*%
X189777900Y-114990700D03*
X189777900Y-114490700D03*
D14*
X188302900Y-113990700D03*
D13*
X186827900Y-114490700D03*
X186827900Y-114990700D03*
%TD*%
D10*
%TO.C,C69*%
X197167500Y-86511700D03*
X197167500Y-84811700D03*
%TD*%
D11*
%TO.C,R7*%
X117975000Y-96350000D03*
X117975000Y-94650000D03*
%TD*%
D13*
%TO.C,A139_HALL18*%
X189777900Y-82986700D03*
X189777900Y-82486700D03*
D14*
X188302900Y-81986700D03*
D13*
X186827900Y-82486700D03*
X186827900Y-82986700D03*
%TD*%
D17*
%TO.C,SHIFT_0*%
X137350500Y-102349500D03*
X138620500Y-102349500D03*
X139890500Y-102349500D03*
X141160500Y-102349500D03*
X142430500Y-102349500D03*
X143700500Y-102349500D03*
X144970500Y-102349500D03*
X146240500Y-102349500D03*
X146240500Y-96202700D03*
X144970500Y-96202700D03*
X143700500Y-96202700D03*
X142430500Y-96202700D03*
X141160500Y-96202700D03*
X139890500Y-96202700D03*
X138620500Y-96202700D03*
X137350500Y-96202700D03*
%TD*%
D13*
%TO.C,A139_HALL7*%
X182640500Y-104322700D03*
X182640500Y-103822700D03*
D14*
X181165500Y-103322700D03*
D13*
X179690500Y-103822700D03*
X179690500Y-104322700D03*
%TD*%
D10*
%TO.C,C52*%
X175831500Y-118515700D03*
X175831500Y-116815700D03*
%TD*%
D13*
%TO.C,A139_HALL13*%
X196864500Y-114990700D03*
X196864500Y-114490700D03*
D14*
X195389500Y-113990700D03*
D13*
X193914500Y-114490700D03*
X193914500Y-114990700D03*
%TD*%
D11*
%TO.C,R8*%
X119975000Y-96325000D03*
X119975000Y-94625000D03*
%TD*%
%TO.C,R57*%
X179895500Y-107695300D03*
X179895500Y-105995300D03*
%TD*%
D13*
%TO.C,A139_HALL3*%
X182640500Y-114990700D03*
X182640500Y-114490700D03*
D14*
X181165500Y-113990700D03*
D13*
X179690500Y-114490700D03*
X179690500Y-114990700D03*
%TD*%
D10*
%TO.C,C50*%
X175831500Y-97179700D03*
X175831500Y-95479700D03*
%TD*%
%TO.C,C9*%
X135813800Y-101281600D03*
X135813800Y-99581600D03*
%TD*%
%TO.C,C64*%
X190080900Y-129209100D03*
X190080900Y-127509100D03*
%TD*%
D11*
%TO.C,R54*%
X179895500Y-129082100D03*
X179895500Y-127382100D03*
%TD*%
D13*
%TO.C,A139_HALL17*%
X182640500Y-82986700D03*
X182640500Y-82486700D03*
D14*
X181165500Y-81986700D03*
D13*
X179690500Y-82486700D03*
X179690500Y-82986700D03*
%TD*%
D25*
%TO.C,U$1*%
X105227500Y-132915700D03*
D26*
X112697500Y-132915700D03*
D27*
X114187500Y-124470700D03*
X114187500Y-128870700D03*
X114187500Y-129970700D03*
D28*
X114277500Y-132470700D03*
D29*
X114277500Y-119820700D03*
D30*
X99427500Y-132810700D03*
X99427500Y-119520700D03*
D27*
X114187500Y-125570700D03*
X114187500Y-123370700D03*
X114187500Y-131070700D03*
X114187500Y-127770700D03*
X114187500Y-126670700D03*
%TD*%
D10*
%TO.C,C4*%
X121729500Y-126747100D03*
X121729500Y-128447100D03*
%TD*%
%TO.C,C57*%
X183070500Y-107822300D03*
X183070500Y-106122300D03*
%TD*%
%TO.C,C61*%
X197167500Y-107822300D03*
X197167500Y-106122300D03*
%TD*%
D11*
%TO.C,R55*%
X179895500Y-97052700D03*
X179895500Y-95352700D03*
%TD*%
D10*
%TO.C,C63*%
X197294500Y-118515700D03*
X197294500Y-116815700D03*
%TD*%
D11*
%TO.C,R63*%
X194119500Y-118388700D03*
X194119500Y-116688700D03*
%TD*%
%TO.C,R30*%
X114225000Y-90650000D03*
X114225000Y-92350000D03*
%TD*%
%TO.C,R68*%
X187032900Y-86384700D03*
X187032900Y-84684700D03*
%TD*%
%TO.C,C5*%
X111405300Y-94907300D03*
X113105300Y-94907300D03*
%TD*%
D10*
%TO.C,C10*%
X117030500Y-126747100D03*
X117030500Y-128447100D03*
%TD*%
D13*
%TO.C,A139_HALL16*%
X175528500Y-82986700D03*
X175528500Y-82486700D03*
D14*
X174053500Y-81986700D03*
D13*
X172578500Y-82486700D03*
X172578500Y-82986700D03*
%TD*%
D11*
%TO.C,C7*%
X123232400Y-99314400D03*
X121532400Y-99314400D03*
%TD*%
%TO.C,R2*%
X114554000Y-100521400D03*
X114554000Y-102221400D03*
%TD*%
D13*
%TO.C,A139_HALL19*%
X196864500Y-82986700D03*
X196864500Y-82486700D03*
D14*
X195389500Y-81986700D03*
D13*
X193914500Y-82486700D03*
X193914500Y-82986700D03*
%TD*%
D31*
%TO.C,U3*%
X127217400Y-94259400D03*
X127217400Y-95529400D03*
X127217400Y-96799400D03*
X127217400Y-98069400D03*
X132167400Y-98069400D03*
X132167400Y-96799400D03*
X132167400Y-95529400D03*
X132167400Y-94259400D03*
%TD*%
D32*
%TO.C,U$2*%
X146132500Y-108320100D03*
X145482500Y-108320100D03*
X144832500Y-108320100D03*
X144182500Y-108320100D03*
X143532500Y-108320100D03*
X142882500Y-108320100D03*
X142232500Y-108320100D03*
X141582500Y-108320100D03*
X140932500Y-108320100D03*
X140282500Y-108320100D03*
X139632500Y-108320100D03*
X138982500Y-108320100D03*
X138982500Y-115632100D03*
X139632500Y-115632100D03*
X140282500Y-115632100D03*
X140932500Y-115632100D03*
X141582500Y-115632100D03*
X142232500Y-115632100D03*
X142882500Y-115632100D03*
X143532500Y-115632100D03*
X144182500Y-115632100D03*
X144832500Y-115632100D03*
X145482500Y-115632100D03*
X146132500Y-115632100D03*
%TD*%
D10*
%TO.C,C60*%
X189953900Y-107822300D03*
X189953900Y-106122300D03*
%TD*%
D11*
%TO.C,R66*%
X172783500Y-86384700D03*
X172783500Y-84684700D03*
%TD*%
D10*
%TO.C,C51*%
X175831500Y-129209100D03*
X175831500Y-127509100D03*
%TD*%
D33*
%TO.C,U2*%
X125080000Y-100355000D03*
X126350000Y-100355000D03*
X127620000Y-100355000D03*
X128890000Y-100355000D03*
X130160000Y-100355000D03*
X131430000Y-100355000D03*
X132700000Y-100355000D03*
X133970000Y-100355000D03*
X133970000Y-91045000D03*
X132700000Y-91045000D03*
X131430000Y-91045000D03*
X130160000Y-91045000D03*
X128890000Y-91045000D03*
X127620000Y-91045000D03*
X126350000Y-91045000D03*
X125080000Y-91045000D03*
%TD*%
D15*
%TO.C,U1*%
X121119900Y-105112100D03*
X121119900Y-105912100D03*
X121119900Y-106712100D03*
X121119900Y-107512100D03*
X121119900Y-108312100D03*
X121119900Y-109112100D03*
X121119900Y-109912100D03*
X121119900Y-110712100D03*
D34*
X122612500Y-112204700D03*
X123412500Y-112204700D03*
X124212500Y-112204700D03*
X125012500Y-112204700D03*
X125812500Y-112204700D03*
X126612500Y-112204700D03*
X127412500Y-112204700D03*
X128212500Y-112204700D03*
D15*
X129705100Y-110712100D03*
X129705100Y-109912100D03*
X129705100Y-109112100D03*
X129705100Y-108312100D03*
X129705100Y-107512100D03*
X129705100Y-106712100D03*
X129705100Y-105912100D03*
X129705100Y-105112100D03*
D34*
X128212500Y-103619500D03*
X127412500Y-103619500D03*
X126612500Y-103619500D03*
X125812500Y-103619500D03*
X125012500Y-103619500D03*
X124212500Y-103619500D03*
X123412500Y-103619500D03*
X122612500Y-103619500D03*
%TD*%
D10*
%TO.C,C68*%
X189953900Y-86509400D03*
X189953900Y-84809400D03*
%TD*%
D11*
%TO.C,R56*%
X172758100Y-107695300D03*
X172758100Y-105995300D03*
%TD*%
%TO.C,R51*%
X172783500Y-129082100D03*
X172783500Y-127382100D03*
%TD*%
D10*
%TO.C,R31*%
X115989600Y-85904000D03*
X117689600Y-85904000D03*
%TD*%
%TO.C,C67*%
X183070500Y-86511700D03*
X183070500Y-84811700D03*
%TD*%
D11*
%TO.C,R62*%
X187032900Y-118388700D03*
X187032900Y-116688700D03*
%TD*%
%TO.C,R52*%
X172783500Y-118388700D03*
X172783500Y-116688700D03*
%TD*%
M02*
